<?xml version="1.0" encoding="UTF-8"?>
<svg xmlns="http://www.w3.org/2000/svg" version="1.1" xmlns:cc="http://creativecommons.org/ns#" xmlns:dc="http://purl.org/dc/elements/1.1/" xmlns:inkscape="http://www.inkscape.org/namespaces/inkscape" xmlns:rdf="http://www.w3.org/1999/02/22-rdf-syntax-ns#" xmlns:sodipodi="http://sodipodi.sourceforge.net/DTD/sodipodi-0.dtd" xmlns:svg="http://www.w3.org/2000/svg" xmlns:xlink="http://www.w3.org/1999/xlink" viewBox="0 0 3152 3637.3">
  <!-- Generator: Adobe Illustrator 29.7.1, SVG Export Plug-In . SVG Version: 2.1.1 Build 8)  -->
  <defs>
    <style>
      .st0 {
        fill: #d40b28;
      }

      .st0, .st1, .st2, .st3, .st4 {
        isolation: isolate;
      }

      .st0, .st5, .st4 {
        font-family: LucidaConsole, 'Lucida Console';
        font-size: 462.3px;
      }

      .st1 {
        font-size: 358.7px;
      }

      .st1, .st2 {
        font-family: ArialMT, Arial;
      }

      .st2 {
        font-size: 724.7px;
      }

      .st6 {
        fill: #d91433;
      }

      .st7 {
        fill: #46ac32;
      }

      .st8 {
        fill: none;
      }

      .st9 {
        fill: #80cc28;
      }

      .st10 {
        fill: #288d30;
      }

      .st11 {
        clip-path: url(#clippath);
      }
    </style>
    <clipPath id="clippath">
      <rect class="st8" x="-839.4" y="-2226.3" width="4876.5" height="6896.8"/>
    </clipPath>
  </defs>
  <g id="svg2985" inkscape:version="1.2.1 (9c6d41e410, 2022-07-14)">
    <sodipodi:namedview id="namedview2987" width="90cm" height="14.8cm" bordercolor="#666666" borderopacity="1" gridtolerance="10" guidetolerance="10" inkscape:current-layer="layer1" inkscape:cx="1870" inkscape:cy="975" inkscape:deskcolor="#d1d1d1" inkscape:document-rotation="0" inkscape:document-units="cm" inkscape:guide-bbox="true" inkscape:pagecheckerboard="0" inkscape:pageopacity="0" inkscape:pageshadow="2" inkscape:showpageshadow="0" inkscape:window-height="1369" inkscape:window-maximized="1" inkscape:window-width="2560" inkscape:window-x="-8" inkscape:window-y="-8" inkscape:zoom="0.2" objecttolerance="10" pagecolor="#ffffff" showborder="true" showgrid="false" showguides="true" units="cm"/>
    <g id="layer1" inkscape:groupmode="layer" inkscape:label="rapidlasso_name">
      <g id="g5515">
        <g id="g3041">
          <path id="path3043" class="st10" d="M1970.3,742.8c469.2-13.1,1035.2,313.9,1035.2,313.9,0,0-695.1-265.4-1074.7-216.9-337.6,51.2-400,216.9-691,279.4-167,35.9-271-6.9-271-6.9,340.6-48.6,395.8-127.2,667.2-286.6,150.3-87.1,334.4-82.8,334.4-82.8" inkscape:connector-curvature="0"/>
        </g>
        <g id="g3045">
          <path id="path3047" class="st6" d="M1400.7,263.3c92.9-89.1,209.6-205.2,225.6-191,16,14.2-92.3,121.9-192.8,225.1-147.2,158.2-465.1,453.7-465.1,453.7l-157.4,154.5-36.4-16.7s533.3-536.5,626.1-625.6" inkscape:connector-curvature="0"/>
        </g>
        <g id="g3049">
          <path id="path3051" class="st7" d="M2010.4,1004.3c445.9-7.8,980.3,308.5,980.3,308.5,0,0-657.7-259.1-1018.8-216.8-321.2,45.3-382.1,202-659.2,258.5-159,32.4-257.4-9.3-257.4-9.3,324.1-42.8,377.2-116.9,636.6-265.7,143.7-81.3,318.5-75.3,318.5-75.3" inkscape:connector-curvature="0"/>
        </g>
        <g id="g3053">
          <path id="path3055" class="st9" d="M2021.3,1266.4c406.6-11.9,897.6,266.8,897.6,266.8,0,0-602.8-225.9-931.7-183.9-292.5,44.3-346.3,186-598.4,239.9-144.6,30.9-234.9-5.5-234.9-5.5,295.1-42,342.8-109.4,577.8-246.1,130.1-74.7,289.7-71.3,289.7-71.3" inkscape:connector-curvature="0"/>
        </g>
        <g id="g3057">
          <path id="path3059" class="st10" d="M265.7,1189.6c-47.8,39.6-76.5,69.6-87.4,75.1,42.3-58.4,153-161.3,251.2-237.6,93.2-69.8,192.9-128.5,325.2-147.6,15-1.8,26.9-5.2,33-6.7,3.4-.9,3.8-1,5-.3,3.3,2,35.2,14.6,35.5,16.2.3,5.4,6.4,6.3,10,3.7,5.4,2.4,12.4,7,24.7,13.8,10,5.7,17.2,8.4,18.4,10.5.5,1.5.2,4.4.5,5.9,1.9,7.7,0,2.5,19.3,33.9,10.2,16.6,14.3,47,14.3,58.5s-2.8,51.2-7.8,55.2c-5,4-3.2-15.6-9.1-31.2-5.8-15.6-26.6-89-136.3-90.3-69.6,3.9-167.3,14.8-284.9,87.1-80.2,49.3-154,102.2-211.7,153.7" inkscape:connector-curvature="0"/>
        </g>
        <g class="st11">
          <g id="g3007">
            <g id="g3013">
              <path id="path3015" class="st6" d="M1690.9,298.8c126.2-83.5,287.3-192.9,301.4-173.6,14,19.3-132.2,121.5-270.2,219.7-203.5,152-633.6,427-633.6,427l-214.7,145.6-38.9-26.8s729.8-508.4,856-591.9" inkscape:connector-curvature="0"/>
            </g>
          </g>
        </g>
      </g>
      <g id="text3070">
        <text class="st4" transform="translate(161.4 2079.4)"><tspan x="0" y="0">rapid</tspan></text>
        <text class="st0" transform="translate(1554.2 2079.4)"><tspan x="0" y="0">las</tspan></text>
        <text class="st5" transform="translate(2389.9 2079.4)"><tspan x="0" y="0">so</tspan></text>
      </g>
      <g id="text5401" class="st3">
        <text class="st2" transform="translate(104 3070)"><tspan x="0" y="0">LAStools</tspan></text>
      </g>
      <g id="text5423" class="st3">
        <text class="st1" transform="translate(118.9 3409.2)"><tspan x="0" y="0">LiDAR processing</tspan></text>
      </g>
    </g>
  </g>
</svg>